<svg width="3594" height="470" viewBox="0 0 3594 470" fill="none" xmlns="http://www.w3.org/2000/svg">
<path d="M3215.75 465.91C3209.52 465.91 3204.18 463.725 3199.74 459.357C3195.29 454.989 3193.1 449.665 3193.17 443.385C3193.1 437.243 3195.29 431.987 3199.74 427.619C3204.18 423.25 3209.52 421.066 3215.75 421.066C3221.77 421.066 3227 423.25 3231.45 427.619C3235.96 431.987 3238.25 437.243 3238.32 443.385C3238.25 447.549 3237.16 451.337 3235.04 454.75C3232.98 458.163 3230.25 460.893 3226.83 462.94C3223.48 464.92 3219.78 465.91 3215.75 465.91Z" fill="black"/>
<path d="M3361.22 253.978H3398.99V401.409C3398.92 414.923 3396.04 426.561 3390.37 436.321C3384.69 446.013 3376.75 453.487 3366.56 458.743C3356.44 463.93 3344.63 466.524 3331.16 466.524C3318.85 466.524 3307.76 464.34 3297.91 459.971C3288.13 455.535 3280.37 448.982 3274.62 440.314C3268.87 431.646 3266 420.861 3266 407.961H3303.86C3303.93 413.626 3305.16 418.507 3307.56 422.602C3310.02 426.697 3313.41 429.837 3317.72 432.021C3322.03 434.205 3326.99 435.297 3332.6 435.297C3338.68 435.297 3343.85 434.035 3348.09 431.509C3352.33 428.915 3355.55 425.093 3357.74 420.042C3359.99 414.991 3361.16 408.78 3361.22 401.409V253.978Z" fill="black"/>
<path d="M3554.49 311.62C3553.54 302.678 3549.5 295.716 3542.39 290.734C3535.34 285.751 3526.17 283.26 3514.89 283.26C3506.95 283.26 3500.14 284.454 3494.47 286.843C3488.79 289.232 3484.44 292.474 3481.43 296.569C3478.42 300.665 3476.88 305.34 3476.82 310.596C3476.82 314.964 3477.81 318.752 3479.79 321.96C3481.84 325.168 3484.62 327.898 3488.1 330.151C3491.59 332.335 3495.46 334.178 3499.7 335.679C3503.94 337.181 3508.22 338.444 3512.53 339.468L3532.23 344.382C3540.16 346.225 3547.79 348.716 3555.11 351.856C3562.5 354.996 3569.1 358.954 3574.91 363.732C3580.8 368.51 3585.45 374.278 3588.87 381.035C3592.29 387.792 3594 395.709 3594 404.787C3594 417.073 3590.85 427.892 3584.56 437.243C3578.27 446.525 3569.17 453.794 3557.26 459.05C3545.43 464.237 3531.1 466.831 3514.27 466.831C3497.92 466.831 3483.73 464.306 3471.69 459.255C3459.71 454.204 3450.34 446.832 3443.57 437.14C3436.87 427.448 3433.24 415.64 3432.69 401.716H3470.15C3470.69 409.019 3472.95 415.094 3476.92 419.94C3480.89 424.786 3486.05 428.404 3492.41 430.792C3498.84 433.181 3506.03 434.376 3513.96 434.376C3522.24 434.376 3529.49 433.147 3535.72 430.69C3542.01 428.165 3546.93 424.684 3550.49 420.247C3554.05 415.742 3555.86 410.487 3555.93 404.48C3555.86 399.02 3554.25 394.515 3551.11 390.966C3547.96 387.348 3543.55 384.345 3537.87 381.956C3532.26 379.499 3525.69 377.315 3518.17 375.404L3494.26 369.261C3476.95 364.824 3463.27 358.101 3453.22 349.091C3443.23 340.014 3438.23 327.967 3438.23 312.951C3438.23 300.596 3441.59 289.778 3448.29 280.495C3455.06 271.213 3464.26 264.012 3475.89 258.893C3487.52 253.705 3500.69 251.112 3515.4 251.112C3530.31 251.112 3543.38 253.705 3554.6 258.893C3565.88 264.012 3574.74 271.145 3581.17 280.291C3587.6 289.369 3590.92 299.812 3591.13 311.62H3554.49Z" fill="black"/>
<path fill-rule="evenodd" clip-rule="evenodd" d="M2852.28 430.04C2886.6 456.257 2932.59 469.366 2990.22 469.366C3044.05 469.366 3085.79 457.737 3115.46 434.48C3145.55 411.224 3160.59 378.03 3160.59 334.899C3160.59 302.339 3151.06 275.488 3131.99 254.345C3112.91 233.203 3082.4 216.5 3040.44 204.237L2956.53 178.866C2932.8 171.678 2916.48 163.221 2907.58 153.495C2899.11 143.77 2894.87 131.93 2894.87 117.976C2894.87 101.062 2902.07 87.7418 2916.48 78.0162C2930.89 68.2906 2950.39 63.4278 2974.97 63.4278C3002.94 63.4278 3025.19 69.5591 3041.72 81.8218C3058.24 93.6617 3068.84 112.267 3073.5 137.638H3152.96C3148.73 95.3531 3131.35 61.9478 3100.84 37.4224C3070.75 12.4741 3030.27 0 2979.42 0C2946.36 0 2917.33 5.28564 2892.33 15.8569C2867.75 26.4282 2848.67 41.4395 2835.11 60.8907C2821.55 80.3419 2814.77 103.176 2814.77 129.393C2814.77 160.684 2824.52 186.689 2844.01 207.409C2863.93 228.129 2894.87 244.831 2936.82 257.517L3019.47 282.254C3041.5 288.596 3057.18 296.842 3066.51 306.991C3075.83 317.139 3080.49 330.459 3080.49 346.95C3080.49 365.556 3072.87 380.144 3057.61 390.715C3042.78 400.864 3021.16 405.938 2992.77 405.938C2958.44 405.938 2930.68 398.327 2909.49 383.104C2888.3 367.458 2875.8 345.681 2871.98 317.773H2792.52C2798.45 365.978 2818.37 403.401 2852.28 430.04ZM1983.83 452.874C2011.8 464.291 2042.32 470 2075.37 470C2108.43 470 2138.94 464.291 2166.91 452.874C2194.88 441.457 2219.04 425.178 2239.38 404.035C2260.15 382.892 2276.04 357.944 2287.06 329.19C2298.5 300.436 2304.23 268.722 2304.23 234.049C2304.23 187.958 2294.48 147.364 2274.98 112.267C2255.49 77.1705 2228.36 49.8965 2193.61 30.4453C2159.29 10.5713 2119.66 0.63427 2074.74 0.63427C2030.66 0.63427 1991.25 10.5713 1956.5 30.4453C1922.17 49.8965 1895.26 77.1705 1875.76 112.267C1856.27 146.941 1846.52 187.323 1846.52 233.414C1846.52 268.088 1852.03 300.013 1863.05 329.19C1874.49 357.944 1890.38 382.892 1910.73 404.035C1931.49 425.178 1955.86 441.457 1983.83 452.874ZM2150.39 381.201C2128.77 395.578 2103.56 402.767 2074.74 402.767C2046.34 402.767 2021.13 395.578 1999.09 381.201C1977.47 366.824 1960.52 346.95 1948.23 321.579C1936.37 296.208 1930.43 266.608 1930.43 232.78C1930.43 199.375 1936.37 170.409 1948.23 145.884C1960.1 121.359 1976.84 102.33 1998.45 88.7989C2020.49 74.8448 2045.92 67.8677 2074.74 67.8677C2103.98 67.8677 2129.41 74.8448 2151.02 88.7989C2173.06 102.33 2190.01 121.57 2201.88 146.518C2214.17 171.044 2220.31 199.798 2220.31 232.78C2220.31 266.185 2214.17 295.785 2201.88 321.579C2189.59 346.95 2172.42 366.824 2150.39 381.201ZM0 6.97704V463.657H82.6414V286.059H205.332C238.813 286.059 267.419 280.351 291.152 268.934C314.885 257.094 333.32 240.603 346.458 219.46C359.596 198.318 366.165 173.792 366.165 145.884C366.165 117.553 359.596 93.0274 346.458 72.3077C333.744 51.5879 315.309 35.5196 291.152 24.1026C267.419 12.6855 238.813 6.97704 205.332 6.97704H0ZM82.6414 221.363H201.518C227.794 221.363 247.924 214.597 261.91 201.066C276.319 187.535 283.524 169.141 283.524 145.884C283.524 123.05 276.319 105.079 261.91 91.9703C247.924 78.8619 227.794 72.3077 201.518 72.3077H82.6414V221.363ZM420.24 6.97704V463.657H502.881V271.471H503.046L503 270H641.598C662.709 267.697 681.735 262.69 698.678 254.98C722.834 243.986 741.27 228.551 753.984 208.677C767.122 188.803 773.691 165.758 773.691 139.541C773.691 112.901 767.122 89.6446 753.984 69.7705C741.27 49.8965 722.834 34.4624 698.678 23.4683C674.521 12.4741 646.126 6.97704 613.493 6.97704H420.24ZM667.569 330.226L567.256 332.237L682.149 463.657H796.576L667.569 330.226ZM502.881 208.677H610.951C637.65 208.677 657.993 202.546 671.978 190.283C686.387 178.021 693.592 161.107 693.592 139.541C693.592 117.976 686.599 101.484 672.614 90.0674C658.628 78.2276 638.074 72.3077 610.951 72.3077H502.881V208.677ZM844.293 463.657V6.97704H883.707H926.935H1166.59V72.3077H926.935V196.626H1151.34V260.688H926.935V398.327H1173.59V463.657H926.935H883.707H844.293ZM1213.17 6.97704L1381.63 463.657H1475.71L1643.54 6.97704H1561.53L1430.58 385.112L1299.62 6.97704H1213.17ZM1701 463.657V6.97704H1783.64V463.657H1701ZM2551.46 470C2489.59 470 2442.76 452.452 2410.97 417.355C2379.19 382.258 2363.3 331.939 2363.3 266.397V6.97704H2445.94V278.448C2445.94 320.31 2455.26 351.601 2473.91 372.321C2492.56 392.618 2518.62 402.767 2552.1 402.767C2585.58 402.767 2611.64 392.618 2630.29 372.321C2648.94 351.601 2658.26 320.522 2658.26 279.082V6.97704H2740.9V267.031C2740.9 332.15 2724.8 382.258 2692.59 417.355C2660.81 452.452 2613.76 470 2551.46 470Z" fill="black"/>
</svg>
